<svg width="279" height="32" fill="none" xmlns="http://www.w3.org/2000/svg"><path d="M21.73 22.6L12.826 1.012H.856V31h7.896V6.976h.084L18.328 31h6.804l9.492-24.024h.084V31h7.896V1.012h-11.97L21.73 22.6zm24.901-6.594c0 6.258 2.52 15.834 18.648 15.834s18.648-9.576 18.648-15.834c0-6.258-2.52-15.834-18.648-15.834S46.631 9.748 46.631 16.006zm8.652 0c0-4.662 2.604-10.122 9.996-10.122s9.996 5.46 9.996 10.122-2.604 10.122-9.996 10.122-9.996-5.46-9.996-10.122zm40.838-9.282h8.316c6.216 0 8.568 3.444 8.568 8.988 0 6.342-2.436 9.576-7.812 9.576h-9.072V6.724zM87.973 31h19.404c9.408 0 14.028-5.964 14.028-14.994s-4.452-14.994-14.742-14.994h-18.69V31zm63.388-9.072h-.084l-15.75-20.916h-9.45V31h7.896V10.084h.084L150.395 31h8.862V1.012h-7.896v20.916zM164.96 31h8.148V1.012h-8.148V31zm22.011-17.094V1.012h-8.148V31h8.148v-8.904l4.746-4.074L201.923 31h11.004l-14.826-17.934 13.776-12.054h-10.962l-13.944 12.894zM215.368 31h28.182v-5.712h-20.034V18.4h18.858v-5.46h-18.858V6.724h19.866V1.012h-28.014V31zm42.097 0h8.148V20.542l13.272-19.53h-9.576l-7.77 13.062-7.77-13.062h-9.576l13.272 19.53V31z" fill="#fff"/></svg>