<svg xmlns="http://www.w3.org/2000/svg" width="20pt" height="20pt" viewBox="0 0 20 20"><path d="M18 0H2C.898 0 0 .898 0 2v16c0 1.102.898 2 2 2h16c1.102 0 2-.898 2-2V2c0-1.102-.898-2-2-2zm-7 14.2c-.8 0-1.602-.302-2.102-.9l-1 3.2-.097.2c-.2.3-.5.5-.903.5-.597 0-1.097-.5-1.097-1.098V16l.097-.2L7.7 10.2s-.2-.599-.2-1.5c0-1.7.898-2.2 1.7-2.2.698 0 1.402.3 1.402 1.3 0 1.302-.903 2-.903 3 0 .7.602 1.302 1.301 1.302 2.3 0 3.2-1.801 3.2-3.403 0-2.199-1.9-4-4.2-4-2.3 0-4.2 1.801-4.2 4 0 .7.2 1.301.5 1.903.098.199.098.296.098.5 0 .597-.398 1-1 1-.398 0-.699-.204-.898-.5-.5-.903-.8-1.903-.8-3 0-3.301 2.8-6 6.198-6 3.403 0 6.204 2.699 6.204 6 .097 2.796-1.5 5.597-5.102 5.597zm0 0"/></svg>