<svg width="305" height="30" fill="none" xmlns="http://www.w3.org/2000/svg"><path d="M36.236 29V9.21L25.777 29h-7.3L8.017 9.21V29H.41V.822h10.336L22.127 22.15 33.509.822h10.295V29h-7.568zm52.849-14.068c0 2.42-.444 4.56-1.333 6.419a12.522 12.522 0 01-3.814 4.634c-1.655 1.245-3.665 2.188-6.03 2.83-2.351.63-4.997.944-7.936.944-2.94 0-5.599-.315-7.978-.944-2.365-.642-4.382-1.585-6.05-2.83a12.63 12.63 0 01-3.855-4.634c-.902-1.86-1.354-4-1.354-6.42s.452-4.552 1.354-6.398a12.585 12.585 0 013.855-4.655c1.668-1.244 3.685-2.18 6.05-2.81 2.379-.642 5.038-.964 7.978-.964 2.94 0 5.585.322 7.936.964 2.365.63 4.375 1.566 6.03 2.81a12.478 12.478 0 013.814 4.655c.889 1.846 1.333 3.979 1.333 6.399zm-7.69 0a9.981 9.981 0 00-.513-3.138c-.328-1.053-.923-1.996-1.784-2.83-.848-.834-2.01-1.51-3.487-2.03-1.476-.52-3.356-.78-5.64-.78-1.53 0-2.877.123-4.04.37-1.162.232-2.166.56-3.014.984-.848.424-1.559.923-2.133 1.497a7.195 7.195 0 00-1.374 1.825 7.692 7.692 0 00-.738 2.03 10.745 10.745 0 000 4.184 8.01 8.01 0 00.738 2.05c.342.643.8 1.245 1.374 1.805.574.561 1.285 1.053 2.133 1.477.848.41 1.852.738 3.015.984 1.162.233 2.508.349 4.04.349 2.283 0 4.163-.26 5.64-.78 1.476-.519 2.638-1.196 3.486-2.03.861-.834 1.456-1.77 1.784-2.81.342-1.052.512-2.105.512-3.157zM122.635 29l-19.01-19.36V29h-7.608V.822h8.264l19.031 19.442V.822h7.568V29h-8.244zm51.577-14.11c0 1.805-.198 3.412-.595 4.82-.396 1.395-.957 2.611-1.681 3.65a10.58 10.58 0 01-2.584 2.646 13.176 13.176 0 01-3.343 1.743 20.668 20.668 0 01-3.979.964 33.347 33.347 0 01-4.45.287h-17.883V.822h17.842c1.545 0 3.028.103 4.45.308 1.422.191 2.748.506 3.979.943a13.427 13.427 0 013.384 1.743 10.138 10.138 0 012.584 2.646c.724 1.039 1.285 2.256 1.681 3.65.397 1.395.595 2.988.595 4.779zm-7.67 0c0-1.353-.178-2.529-.533-3.527-.342-.998-.903-1.818-1.682-2.46-.766-.657-1.77-1.142-3.015-1.457-1.244-.328-2.761-.492-4.552-.492h-9.454v15.914h9.454c1.791 0 3.308-.157 4.552-.471 1.245-.329 2.249-.82 3.015-1.477a5.654 5.654 0 001.682-2.502c.355-.998.533-2.174.533-3.527zM181.165 29V.822h7.608V29h-7.608zm24.097-17.432L220.848.822h10.192l-18.97 13.515L232.312 29h-11.095l-15.955-11.71V29h-7.65V.822h7.65v10.746zM236.741 29V.822h28.527v6.01h-20.713v4.654h19.646v6.01h-19.646v5.495h21V29h-28.814zm53.854-11.505V29h-7.588V17.495L269.349.822h8.531l8.941 11.341 8.901-11.34h8.531l-13.658 16.672z"/></svg>