<svg width="28" height="25" fill="none" xmlns="http://www.w3.org/2000/svg"><path d="M25.094 2.42A7.48 7.48 0 0019.752.2c-2.02 0-3.918.79-5.347 2.225l-.747.749-.758-.761A7.518 7.518 0 007.547.184 7.49 7.49 0 002.21 2.402 7.522 7.522 0 000 7.768c0 2.027.793 3.926 2.222 5.36l10.869 10.907a.777.777 0 001.1.006l10.891-10.89A7.552 7.552 0 0027.3 7.787a7.516 7.516 0 00-2.205-5.366zm-1.111 9.623L13.64 22.38 3.32 12.025a5.99 5.99 0 01-1.758-4.257 5.96 5.96 0 011.753-4.25 5.94 5.94 0 014.23-1.76c1.604 0 3.114.627 4.249 1.765l1.307 1.313a.777.777 0 001.106 0l1.296-1.301a5.958 5.958 0 014.242-1.766c1.598 0 3.102.628 4.237 1.76a5.984 5.984 0 011.753 4.257 5.96 5.96 0 01-1.753 4.257z"/></svg>