<svg xmlns="http://www.w3.org/2000/svg" xmlns:xlink="http://www.w3.org/1999/xlink"><symbol id="icon-cart" viewBox="0 0 28 32">
<path fill-rule="evenodd" clip-rule="evenodd" d="M20.5714 6.85714L27.4286 6.85714V32H0V6.85714L6.85714 6.85714C6.85714 3.07005 9.92719 0 13.7143 0C17.5014 0 20.5714 3.07005 20.5714 6.85714ZM18.2857 9.14286H9.14286V10.2857H18.2857V9.14286ZM6.85714 9.14286V12.5714L9.14285 12.5714V10.2857H18.2857V12.5714L20.5714 12.5714V9.14286H25.1429V29.7143H2.28571V9.14286H6.85714ZM9.14286 6.85714C9.14286 4.33241 11.1896 2.28571 13.7143 2.28571C16.239 2.28571 18.2857 4.33241 18.2857 6.85714H9.14286Z"/>
</symbol><symbol id="icon-checkbox-on" viewBox="0 0 24 18">
<path d="M23.6485 0.351492C23.1799 -0.117164 22.4202 -0.117164 21.9515 0.351492L7.57473 14.7284L2.04855 9.20218C1.57994 8.73353 0.820194 8.73358 0.351492 9.20218C-0.117164 9.67079 -0.117164 10.4305 0.351492 10.8992L6.7262 17.2738C7.19467 17.7424 7.95498 17.7421 8.42326 17.2738L23.6485 2.04855C24.1172 1.57994 24.1171 0.820147 23.6485 0.351492Z" fill="white"/>
</symbol><symbol id="icon-close" viewBox="0 0 25 22">
<path d="M11.0126 11.0034L0.232234 20.8095C-0.0672632 21.082 -0.0672632 21.5233 0.232234 21.7958C0.381792 21.9322 0.578159 22 0.774145 22C0.970512 22 1.1665 21.9322 1.31606 21.7958L12.1775 11.9159L23.0389 21.7958C23.1889 21.9322 23.3849 22 23.5808 22C23.7768 22 23.9732 21.9322 24.1228 21.7958C24.4223 21.5233 24.4223 21.082 24.1228 20.8095L13.3428 11.0034L24.13 1.19029C24.4295 0.917857 24.4295 0.476496 24.13 0.204064C23.8305 -0.0680214 23.3453 -0.0680214 23.0462 0.204064L12.1779 10.0909L1.30845 0.20441C1.00895 -0.0676753 0.52412 -0.0676753 0.224623 0.20441C-0.0748743 0.476842 -0.0748743 0.918203 0.224623 1.19063L11.0126 11.0034Z"/>
</symbol><symbol id="icon-down-dir" viewBox="0 0 25 13">
<path d="M24.2317 0.52423C23.9074 0.214152 23.3805 0.214152 23.0563 0.52423L12.7207 10.4273L2.36489 0.52423C2.04064 0.214152 1.51373 0.214152 1.18948 0.52423C0.865226 0.834307 0.865226 1.33818 1.18948 1.64826L12.1127 12.094C12.2749 12.249 12.4775 12.3266 12.7004 12.3266C12.9031 12.3266 13.126 12.249 13.2881 12.094L24.2114 1.64826C24.5559 1.33818 24.5559 0.834307 24.2317 0.52423V0.52423Z" fill="black"/>
</symbol><symbol id="icon-facebook" viewBox="0 0 24 24">
<path d="M20.4844 0H3.51562C1.57727 0 0 1.57727 0 3.51562V20.4844C0 22.4227 1.57727 24 3.51562 24H10.5938V15.5156H7.78125V11.2969H10.5938V8.4375C10.5938 6.11115 12.4861 4.21875 14.8125 4.21875H19.0781V8.4375H14.8125V11.2969H19.0781L18.375 15.5156H14.8125V24H20.4844C22.4227 24 24 22.4227 24 20.4844V3.51562C24 1.57727 22.4227 0 20.4844 0Z" fill="black"/>
</symbol><symbol id="icon-heart" viewBox="0 0 28 25">
<path d="M25.0938 2.41975C23.6644 0.985319 21.7719 0.201321 19.7521 0.201321C17.7324 0.201321 15.8341 0.991127 14.4047 2.42555L13.6581 3.17471L12.9 2.41394C11.4705 0.979512 9.56646 0.183899 7.54669 0.183899C5.5327 0.183899 3.63447 0.973704 2.21079 2.40232C0.781319 3.83675 -0.00575563 5.74158 3.16897e-05 7.76836C3.16897e-05 9.79514 0.792894 11.6942 2.22236 13.1286L13.0909 24.0349C13.2414 24.1859 13.444 24.2672 13.6407 24.2672C13.8375 24.2672 14.0401 24.1917 14.1905 24.0407L25.0823 13.1518C26.5117 11.7174 27.2988 9.81256 27.2988 7.78578C27.3046 5.759 26.5233 3.85417 25.0938 2.41975ZM23.9827 12.0426L13.6407 22.3798L3.32195 12.0252C2.18764 10.8869 1.56261 9.37701 1.56261 7.76836C1.56261 6.15971 2.18185 4.64979 3.31616 3.51734C4.44469 2.3849 5.94939 1.7577 7.54669 1.7577C9.14978 1.7577 10.6603 2.3849 11.7946 3.52315L13.1025 4.83562C13.4092 5.14341 13.9012 5.14341 14.2079 4.83562L15.5042 3.53477C16.6386 2.39652 18.1491 1.76932 19.7463 1.76932C21.3436 1.76932 22.8484 2.39652 23.9827 3.52896C25.117 4.66721 25.7362 6.17713 25.7362 7.78578C25.742 9.39443 25.117 10.9044 23.9827 12.0426Z"/>
</symbol><symbol id="icon-instagram" viewBox="0 0 24 24">
<path d="M16.5 0H7.5C3.3585 0 0 3.3585 0 7.5V16.5C0 20.6415 3.3585 24 7.5 24H16.5C20.6415 24 24 20.6415 24 16.5V7.5C24 3.3585 20.6415 0 16.5 0ZM21.75 16.5C21.75 19.395 19.395 21.75 16.5 21.75H7.5C4.605 21.75 2.25 19.395 2.25 16.5V7.5C2.25 4.605 4.605 2.25 7.5 2.25H16.5C19.395 2.25 21.75 4.605 21.75 7.5V16.5Z" fill="black"/>
<path d="M12 6C8.6865 6 6 8.6865 6 12C6 15.3135 8.6865 18 12 18C15.3135 18 18 15.3135 18 12C18 8.6865 15.3135 6 12 6ZM12 15.75C9.933 15.75 8.25 14.067 8.25 12C8.25 9.9315 9.933 8.25 12 8.25C14.067 8.25 15.75 9.9315 15.75 12C15.75 14.067 14.067 15.75 12 15.75Z" fill="black"/>
<path d="M18.4499 6.35C18.8914 6.35 19.2494 5.99205 19.2494 5.55049C19.2494 5.10893 18.8914 4.75098 18.4499 4.75098C18.0083 4.75098 17.6504 5.10893 17.6504 5.55049C17.6504 5.99205 18.0083 6.35 18.4499 6.35Z" fill="black"/>
</symbol><symbol id="icon-logo-old" viewBox="0 0 279 32">
<path d="M21.73 22.6L12.826 1.012H0.856V31H8.752V6.976H8.836L18.328 31H25.132L34.624 6.976H34.708V31H42.604V1.012H30.634L21.73 22.6ZM46.6311 16.006C46.6311 22.264 49.1511 31.84 65.2791 31.84C81.4071 31.84 83.9271 22.264 83.9271 16.006C83.9271 9.748 81.4071 0.171999 65.2791 0.171999C49.1511 0.171999 46.6311 9.748 46.6311 16.006ZM55.2831 16.006C55.2831 11.344 57.8871 5.884 65.2791 5.884C72.6711 5.884 75.2751 11.344 75.2751 16.006C75.2751 20.668 72.6711 26.128 65.2791 26.128C57.8871 26.128 55.2831 20.668 55.2831 16.006ZM96.1212 6.724H104.437C110.653 6.724 113.005 10.168 113.005 15.712C113.005 22.054 110.569 25.288 105.193 25.288H96.1212V6.724ZM87.9732 31H107.377C116.785 31 121.405 25.036 121.405 16.006C121.405 6.976 116.953 1.012 106.663 1.012H87.9732V31ZM151.361 21.928H151.277L135.527 1.012H126.077V31H133.973V10.084H134.057L150.395 31H159.257V1.012H151.361V21.928ZM164.96 31H173.108V1.012H164.96V31ZM186.971 13.906V1.012H178.823V31H186.971V22.096L191.717 18.022L201.923 31H212.927L198.101 13.066L211.877 1.012H200.915L186.971 13.906ZM215.368 31H243.55V25.288H223.516V18.4H242.374V12.94H223.516V6.724H243.382V1.012H215.368V31ZM257.465 31H265.613V20.542L278.885 1.012H269.309L261.539 14.074L253.769 1.012H244.193L257.465 20.542V31Z" fill="white"/>
</symbol><symbol id="icon-logo" viewBox="0 0 305 30">
<path d="M36.2363 29V9.20996L25.7773 29H18.4766L8.01758 9.20996V29H0.40918V0.822266H10.7451L22.127 22.1504L33.5088 0.822266H43.8037V29H36.2363ZM89.085 14.9316C89.085 17.3516 88.6406 19.4912 87.752 21.3506C86.8633 23.1963 85.5918 24.7412 83.9375 25.9854C82.2832 27.2295 80.2734 28.1729 77.9082 28.8154C75.5566 29.4443 72.9111 29.7588 69.9717 29.7588C67.0322 29.7588 64.373 29.4443 61.9941 28.8154C59.6289 28.1729 57.6123 27.2295 55.9443 25.9854C54.2764 24.7412 52.9912 23.1963 52.0889 21.3506C51.1865 19.4912 50.7354 17.3516 50.7354 14.9316C50.7354 12.5117 51.1865 10.3789 52.0889 8.5332C52.9912 6.67383 54.2764 5.12207 55.9443 3.87793C57.6123 2.63379 59.6289 1.69727 61.9941 1.06836C64.373 0.425781 67.0322 0.104492 69.9717 0.104492C72.9111 0.104492 75.5566 0.425781 77.9082 1.06836C80.2734 1.69727 82.2832 2.63379 83.9375 3.87793C85.5918 5.12207 86.8633 6.67383 87.752 8.5332C88.6406 10.3789 89.085 12.5117 89.085 14.9316ZM81.3945 14.9316C81.3945 13.8789 81.2236 12.833 80.8818 11.7939C80.5537 10.7412 79.959 9.79785 79.0977 8.96387C78.25 8.12988 77.0879 7.45312 75.6113 6.93359C74.1348 6.41406 72.2549 6.1543 69.9717 6.1543C68.4404 6.1543 67.0938 6.27734 65.9316 6.52344C64.7695 6.75586 63.7646 7.08398 62.917 7.50781C62.0693 7.93164 61.3584 8.43066 60.7842 9.00488C60.21 9.56543 59.752 10.1738 59.4102 10.8301C59.0684 11.4727 58.8223 12.1494 58.6719 12.8604C58.5352 13.5576 58.4668 14.248 58.4668 14.9316C58.4668 15.6289 58.5352 16.333 58.6719 17.0439C58.8223 17.7549 59.0684 18.4385 59.4102 19.0947C59.752 19.7373 60.21 20.3389 60.7842 20.8994C61.3584 21.46 62.0693 21.9521 62.917 22.376C63.7646 22.7861 64.7695 23.1143 65.9316 23.3604C67.0938 23.5928 68.4404 23.709 69.9717 23.709C72.2549 23.709 74.1348 23.4492 75.6113 22.9297C77.0879 22.4102 78.25 21.7334 79.0977 20.8994C79.959 20.0654 80.5537 19.1289 80.8818 18.0898C81.2236 17.0371 81.3945 15.9844 81.3945 14.9316ZM122.636 29L103.625 9.64062V29H96.0166V0.822266H104.281L123.312 20.2637V0.822266H130.88V29H122.636ZM174.213 14.8906C174.213 16.6953 174.015 18.3018 173.618 19.71C173.222 21.1045 172.661 22.3213 171.937 23.3604C171.226 24.3994 170.364 25.2812 169.353 26.0059C168.354 26.7305 167.24 27.3115 166.01 27.749C164.779 28.1865 163.453 28.5078 162.031 28.7129C160.609 28.9043 159.126 29 157.581 29H139.698V0.822266H157.54C159.085 0.822266 160.568 0.924805 161.99 1.12988C163.412 1.32129 164.738 1.63574 165.969 2.07324C167.213 2.51074 168.341 3.0918 169.353 3.81641C170.364 4.52734 171.226 5.40918 171.937 6.46191C172.661 7.50098 173.222 8.71777 173.618 10.1123C174.015 11.5068 174.213 13.0996 174.213 14.8906ZM166.543 14.8906C166.543 13.5371 166.365 12.3613 166.01 11.3633C165.668 10.3652 165.107 9.54492 164.328 8.90234C163.562 8.24609 162.558 7.76074 161.313 7.44629C160.069 7.11816 158.552 6.9541 156.761 6.9541H147.307V22.8682H156.761C158.552 22.8682 160.069 22.7109 161.313 22.3965C162.558 22.0684 163.562 21.5762 164.328 20.9199C165.107 20.25 165.668 19.416 166.01 18.418C166.365 17.4199 166.543 16.2441 166.543 14.8906ZM181.165 29V0.822266H188.773V29H181.165ZM205.262 11.5684L220.848 0.822266H231.04L212.07 14.3369L232.312 29H221.217L205.262 17.29V29H197.612V0.822266H205.262V11.5684ZM236.741 29V0.822266H265.268V6.83105H244.555V11.4863H264.201V17.4951H244.555V22.9912H265.555V29H236.741ZM290.595 17.4951V29H283.007V17.4951L269.349 0.822266H277.88L286.821 12.1631L295.722 0.822266H304.253L290.595 17.4951Z"/>
</symbol><symbol id="icon-minus" viewBox="0 0 14 2">
<rect width="14" height="2" fill="#000F08"/>
</symbol><symbol id="icon-mobile-menu" viewBox="0 0 45 32">
<path d="M0 0H44.3077V2.46154H0V0Z"/>
<path d="M0 14.7692H44.3077V17.2308H0V14.7692Z"/>
<path d="M0 29.5385H29.5385V32H0V29.5385Z"/>
</symbol><symbol id="icon-pinterest" viewBox="0 0 20 20">
<g id="surface1">
<path style=" stroke:none;fill-rule:nonzero;fill:rgb(0%,0%,0%);fill-opacity:1;" d="M 18 0 L 2 0 C 0.898438 0 0 0.898438 0 2 L 0 18 C 0 19.101562 0.898438 20 2 20 L 18 20 C 19.101562 20 20 19.101562 20 18 L 20 2 C 20 0.898438 19.101562 0 18 0 Z M 11 14.199219 C 10.199219 14.199219 9.398438 13.898438 8.898438 13.300781 L 7.898438 16.5 L 7.800781 16.699219 C 7.601562 17 7.300781 17.199219 6.898438 17.199219 C 6.300781 17.199219 5.800781 16.699219 5.800781 16.101562 C 5.800781 16 5.800781 16 5.800781 16 L 5.898438 15.800781 L 7.699219 10.199219 C 7.699219 10.199219 7.5 9.601562 7.5 8.699219 C 7.5 7 8.398438 6.5 9.199219 6.5 C 9.898438 6.5 10.601562 6.800781 10.601562 7.800781 C 10.601562 9.101562 9.699219 9.800781 9.699219 10.800781 C 9.699219 11.5 10.300781 12.101562 11 12.101562 C 13.300781 12.101562 14.199219 10.300781 14.199219 8.699219 C 14.199219 6.5 12.300781 4.699219 10 4.699219 C 7.699219 4.699219 5.800781 6.5 5.800781 8.699219 C 5.800781 9.398438 6 10 6.300781 10.601562 C 6.398438 10.800781 6.398438 10.898438 6.398438 11.101562 C 6.398438 11.699219 6 12.101562 5.398438 12.101562 C 5 12.101562 4.699219 11.898438 4.5 11.601562 C 4 10.699219 3.699219 9.699219 3.699219 8.601562 C 3.699219 5.300781 6.5 2.601562 9.898438 2.601562 C 13.300781 2.601562 16.101562 5.300781 16.101562 8.601562 C 16.199219 11.398438 14.601562 14.199219 11 14.199219 Z M 11 14.199219 "/>
</g>
</symbol><symbol id="icon-plus" viewBox="0 0 14 14">
<path fill-rule="evenodd" clip-rule="evenodd" d="M8 0H6V6H0V8H6V14H8V8H14V6H8V0Z" fill="#21201f"/>
</symbol><symbol id="icon-right-arrow" viewBox="0 0 30 11">
<path d="M0 5.5H29M29 5.5L23.5135 1M29 5.5L23.5135 10"/>
</symbol><symbol id="icon-right-dir" viewBox="0 0 13 25">
<path d="M12.4822 11.5516L1.16058 0.200447C0.894011 -0.0668158 0.466495 -0.0668158 0.199927 0.200447C-0.0666422 0.46771 -0.0666422 0.89634 0.199927 1.1636L11.0387 12.0306L0.199927 22.8976C-0.0666422 23.1649 -0.0666422 23.5935 0.199927 23.8608C0.330696 23.9919 0.506732 24.0625 0.677738 24.0625C0.848745 24.0625 1.02478 23.9969 1.15555 23.8608L12.4772 12.5097C12.7437 12.2475 12.7437 11.8138 12.4822 11.5516Z" fill="#000F08"/>
</symbol><symbol id="icon-search" viewBox="0 0 24 25">
<path d="M23.7061 22.5568L17.9363 16.7669C19.3665 15.0172 20.2286 12.776 20.2286 10.3333C20.2286 4.73023 15.698 0.183899 10.1143 0.183899C4.52571 0.183899 0 4.73023 0 10.3333C0 15.9363 4.52571 20.4827 10.1143 20.4827C12.5486 20.4827 14.7771 19.6225 16.5208 18.1874L22.2906 23.9723C22.6824 24.3655 23.3143 24.3655 23.7061 23.9723C24.098 23.584 24.098 22.945 23.7061 22.5568ZM10.1143 18.4626C5.64245 18.4626 2.00816 14.8157 2.00816 10.3333C2.00816 5.85084 5.64245 2.19903 10.1143 2.19903C14.5812 2.19903 18.2204 5.85084 18.2204 10.3333C18.2204 14.8157 14.5812 18.4626 10.1143 18.4626Z"/>
</symbol></svg>